<svg xmlns="http://www.w3.org/2000/svg" width="24" height="24" viewBox="0 0 24 24" id="movie">
  <g id="Duotone">
    <path fill="#fff" d="m4.25 11.5-2.75-5 2.75-5h5.5l2.75 5-2.75 5h-5.5zM15.75 11.5 14 8.5l1.75-3h3.5l1.75 3-1.75 3h-3.5zM5.5 13.5h11v6h-11zM16.5 16.498l5-2.998v6l-5-3.002z"></path>
    <path fill="#cce7ff" d="M21.5 16.5v3l-5-3s4.969-.031 5 0zM5.5 16.5h11v3h-11zM19.25 5.5l-3.5 6h3.5l1.75-3-1.75-3zM9.75 1.5l-5.5 10h5.5l2.75-5-2.75-5z"></path>
    <path fill="none" stroke="#1078ff" stroke-linejoin="round" d="m4.25 11.5-2.75-5 2.75-5h5.5l2.75 5-2.75 5h-5.5zM15.75 11.5 14 8.5l1.75-3h3.5l1.75 3-1.75 3h-3.5zM5.5 13.5h11v6h-11z"></path>
    <path fill="none" stroke="#1078ff" stroke-linecap="round" stroke-linejoin="round" d="M6.5 23.5l4-4 4 4"></path>
    <path fill="none" stroke="#1078ff" stroke-linejoin="round" d="M16.5 16.498l5-2.998v6l-5-3.002z"></path>
    <path fill="#1078ff" d="M7 5.5a.2.2 0 0 0-.141.059l-.8.8a.2.2 0 0 0 0 .283l.8.8a.2.2 0 0 0 .283 0l.8-.8a.2.2 0 0 0 0-.283l-.8-.8A.2.2 0 0 0 7 5.5zM17.5 7.5a.2.2 0 0 0-.141.059l-.8.8a.2.2 0 0 0 0 .283l.8.8a.2.2 0 0 0 .283 0l.8-.8a.2.2 0 0 0 0-.283l-.8-.8A.2.2 0 0 0 17.5 7.5z"></path>
  </g>
  <path id="Frames-24px" fill="none" d="M0 0h24v24H0z"></path>
</svg>
